<?xml version="1.0" encoding="utf-8"?>
<!-- Generator: Adobe Illustrator 20.1.0, SVG Export Plug-In . SVG Version: 6.00 Build 0)  -->
<svg version="1.1" id="Layer_1" xmlns="http://www.w3.org/2000/svg" xmlns:xlink="http://www.w3.org/1999/xlink" x="0px" y="0px"
	 viewBox="0 0 258.1 82.6" style="enable-background:new 0 0 258.1 82.6;" xml:space="preserve">
<style type="text/css">
	.st0{fill:#595A5C;}
	.st1{clip-path:url(#SVGID_2_);fill:#595A5C;}
	.st2{clip-path:url(#SVGID_4_);fill:url(#SVGID_5_);}
	.st3{clip-path:url(#SVGID_7_);fill:url(#SVGID_8_);}
	.st4{clip-path:url(#SVGID_10_);fill:url(#SVGID_11_);}
	.st5{clip-path:url(#SVGID_13_);fill:url(#SVGID_14_);}
	.st6{clip-path:url(#SVGID_16_);fill:url(#SVGID_17_);}
</style>
<rect x="102.1" y="17.5" class="st0" width="11.6" height="41.8"/>
<g>
	<defs>
		<rect id="SVGID_1_" width="258.1" height="82.6"/>
	</defs>
	<clipPath id="SVGID_2_">
		<use href="#SVGID_1_"  style="overflow:visible;"/>
	</clipPath>
	<path class="st1" d="M119.9,53l6.4-7.7c4.2,3.3,8.7,5,13.6,5c3.2,0,4.8-1.1,4.8-2.9v-0.1c0-1.8-1.4-2.7-7.1-4.1
		c-8.9-2-15.8-4.5-15.8-13.1v-0.1c0-7.8,6.2-13.4,16.2-13.4c7.1,0,12.7,1.9,17.2,5.6l-5.8,8.2c-3.8-2.7-8-4.1-11.7-4.1
		c-2.8,0-4.2,1.1-4.2,2.7v0.1c0,1.9,1.4,2.7,7.3,4.1c9.6,2.1,15.5,5.2,15.5,13v0.1c0,8.5-6.7,13.6-16.9,13.6
		C132.1,60,125.1,57.6,119.9,53"/>
	<path class="st1" d="M163.8,17.5h18c10.5,0,17.3,5.4,17.3,14.6v0.1c0,9.9-7.6,15.1-17.9,15.1h-5.8v11.9h-11.6V17.5z M180.9,38.2
		c4.1,0,6.6-2.2,6.6-5.5v-0.1c0-3.6-2.6-5.4-6.7-5.4h-5.5v11H180.9z"/>
	<polygon class="st1" points="205.8,17.5 239.4,17.5 239.4,27.2 217.3,27.2 217.3,33.6 237.3,33.6 237.3,42.8 217.3,42.8 
		217.3,49.4 239.7,49.4 239.7,59.3 205.8,59.3 	"/>
	<path class="st1" d="M248.2,54.4L248.2,54.4c0-2.7,2.2-5,5-5c2.8,0,4.9,2.2,4.9,4.9v0c0,2.7-2.2,5-5,5
		C250.3,59.3,248.2,57.1,248.2,54.4 M257.6,54.3L257.6,54.3c0-2.5-1.9-4.5-4.4-4.5c-2.5,0-4.5,2-4.5,4.5v0c0,2.5,1.9,4.4,4.4,4.4
		C255.6,58.8,257.6,56.8,257.6,54.3 M251.1,51.6h2.3c0.7,0,1.2,0.2,1.6,0.5c0.3,0.3,0.4,0.6,0.4,1.1v0c0,0.8-0.5,1.4-1.2,1.6l1.4,2
		h-1.2l-1.3-1.8h-1.1v1.8h-1V51.6z M253.4,54.1c0.6,0,1-0.3,1-0.8v0c0-0.5-0.4-0.8-1-0.8h-1.3v1.6H253.4z"/>
</g>
<g>
	<defs>
		<path id="SVGID_3_" d="M66.8,20.8C42,40.3,26.9,64.3,27.8,80.4c4.2,1.4,8.6,2.2,13.3,2.2c2.3,0,4.6-0.2,6.8-0.6
			C46,67.5,58.3,45.6,79.7,26.6c-1.5-3.9-3.6-7.6-6.2-10.9C71.3,17.4,69,19,66.8,20.8"/>
	</defs>
	<clipPath id="SVGID_4_">
		<use href="#SVGID_3_"  style="overflow:visible;"/>
	</clipPath>
	
		<linearGradient id="SVGID_5_" gradientUnits="userSpaceOnUse" x1="-292.9026" y1="352.1509" x2="-291.3095" y2="352.1509" gradientTransform="matrix(24.8522 -43.0453 -43.0453 -24.8522 22471.0293 -3772.4756)">
		<stop  offset="0" style="stop-color:#00A2CC"/>
		<stop  offset="0.2239" style="stop-color:#0196C1"/>
		<stop  offset="0.6729" style="stop-color:#0779A7"/>
		<stop  offset="1" style="stop-color:#056596"/>
	</linearGradient>
	<polygon class="st2" points="-2,65.9 40.1,-7.1 108.6,32.5 66.5,105.4 	"/>
</g>
<g>
	<defs>
		<path id="SVGID_6_" d="M36.1,7.9C19.1,21.3,6.7,36.8,0.8,50.4c0.8,3.8,2.2,7.3,4,10.6c2.8,5.1,6.6,9.5,11.2,13
			c-1.5-15.9,8.7-39.9,27.6-61.8c3.3-3.8,6.5-7.1,9.9-10.4c-2.2-0.7-4.5-1.2-6.8-1.5C43.1,2.7,39.6,5.1,36.1,7.9"/>
	</defs>
	<clipPath id="SVGID_7_">
		<use href="#SVGID_6_"  style="overflow:visible;"/>
	</clipPath>
	
		<linearGradient id="SVGID_8_" gradientUnits="userSpaceOnUse" x1="-292.8579" y1="352.4856" x2="-291.2648" y2="352.4856" gradientTransform="matrix(25.5711 -44.2904 -44.2904 -25.5711 23108.8047 -3887.6702)">
		<stop  offset="0" style="stop-color:#00A2CC"/>
		<stop  offset="0.2239" style="stop-color:#0196C1"/>
		<stop  offset="0.6729" style="stop-color:#0779A7"/>
		<stop  offset="1" style="stop-color:#056596"/>
	</linearGradient>
	<polygon class="st3" points="-31.1,55.7 14,-22.4 85.4,18.8 40.3,96.9 	"/>
</g>
<g>
	<defs>
		<path id="SVGID_9_" d="M33.8,44.1c-10.7,5.7-21.4,9.7-31.2,12.1C5.3,63.3,10,69.5,16,74.1c9.4-2.4,19.5-6.3,29.6-11.7
			c15.5-8.3,28-18.6,36.1-28.8c-1.5-7.8-5.1-14.8-10.3-20.4C63.5,24.1,50.3,35.2,33.8,44.1"/>
	</defs>
	<clipPath id="SVGID_10_">
		<use href="#SVGID_9_"  style="overflow:visible;"/>
	</clipPath>
	
		<linearGradient id="SVGID_11_" gradientUnits="userSpaceOnUse" x1="-289.7999" y1="352.6981" x2="-288.2068" y2="352.6981" gradientTransform="matrix(45.1512 -26.068 -26.068 -45.1512 22285.5352 8434.3867)">
		<stop  offset="0" style="stop-color:#056596"/>
		<stop  offset="0.235" style="stop-color:#056798"/>
		<stop  offset="0.4237" style="stop-color:#076C9C"/>
		<stop  offset="0.5964" style="stop-color:#0774A3"/>
		<stop  offset="0.7595" style="stop-color:#0682AF"/>
		<stop  offset="0.9144" style="stop-color:#0195C0"/>
		<stop  offset="1" style="stop-color:#00A2CC"/>
	</linearGradient>
	<polygon class="st4" points="-23.8,28.4 61.9,-21 108,58.9 22.3,108.3 	"/>
</g>
<g>
	<defs>
		<path id="SVGID_12_" d="M49.3,75.5c-4.8,2.6-9.6,4.8-14.3,6.7c2,0.3,4,0.4,6,0.4c19.2,0,35.3-13.1,40-30.9
			C73.1,60.2,62.2,68.6,49.3,75.5"/>
	</defs>
	<clipPath id="SVGID_13_">
		<use href="#SVGID_12_"  style="overflow:visible;"/>
	</clipPath>
	
		<linearGradient id="SVGID_14_" gradientUnits="userSpaceOnUse" x1="-288.9137" y1="349.6804" x2="-287.3206" y2="349.6804" gradientTransform="matrix(30.2653 -17.4737 -17.4737 -30.2653 14888.0508 5615.9546)">
		<stop  offset="0" style="stop-color:#056596"/>
		<stop  offset="0.235" style="stop-color:#056798"/>
		<stop  offset="0.4237" style="stop-color:#076C9C"/>
		<stop  offset="0.5964" style="stop-color:#0774A3"/>
		<stop  offset="0.7595" style="stop-color:#0682AF"/>
		<stop  offset="0.9144" style="stop-color:#0195C0"/>
		<stop  offset="1" style="stop-color:#00A2CC"/>
	</linearGradient>
	<polygon class="st5" points="21.7,59.4 69.6,31.8 94.4,74.9 46.6,102.5 	"/>
</g>
<g>
	<defs>
		<path id="SVGID_15_" d="M0,37.2c7.8-1.6,15.9-4.5,24-8.8C37.3,21.3,47.7,11.7,53.7,2c-4-1.3-8.2-2-12.6-2C19.7,0,2,16.3,0,37.2"/>
	</defs>
	<clipPath id="SVGID_16_">
		<use href="#SVGID_15_"  style="overflow:visible;"/>
	</clipPath>
	
		<linearGradient id="SVGID_17_" gradientUnits="userSpaceOnUse" x1="-289.3009" y1="351.2487" x2="-287.7078" y2="351.2487" gradientTransform="matrix(35.0086 -20.2122 -20.2122 -35.0086 17226.1875 6484.1953)">
		<stop  offset="0" style="stop-color:#056596"/>
		<stop  offset="0.235" style="stop-color:#056798"/>
		<stop  offset="0.4237" style="stop-color:#076C9C"/>
		<stop  offset="0.5964" style="stop-color:#0774A3"/>
		<stop  offset="0.7595" style="stop-color:#0682AF"/>
		<stop  offset="0.9144" style="stop-color:#0195C0"/>
		<stop  offset="1" style="stop-color:#00A2CC"/>
	</linearGradient>
	<polygon class="st6" points="-16.1,9.3 40.3,-23.2 69.8,27.9 13.4,60.5 	"/>
</g>
</svg>
